<svg id="bg" xmlns="http://www.w3.org/2000/svg" viewBox="0 0 109.1 39.53"><defs><style>.cls-1{fill:#333e48;}.cls-2{fill:#4da3dc;}</style></defs><title>logo-dark</title><path class="cls-1" d="M2576.37,993.3c-2.76,0-4.84.86-6.25,2.85v-13a0.27,0.27,0,0,0-.27-0.27h-2.48a0.27,0.27,0,0,0-.27.27v30.13a0.27,0.27,0,0,0,.27.27h2.48a0.27,0.27,0,0,0,.27-0.27V1011a6.68,6.68,0,0,0,2.7,2.21,8.62,8.62,0,0,0,3.55.72,7.37,7.37,0,0,0,6.08-2.72q2.19-2.72,2.19-7.62t-2.17-7.58A7.4,7.4,0,0,0,2576.37,993.3Zm4,15.66a4.66,4.66,0,0,1-4.07,1.89,5.37,5.37,0,0,1-4.41-1.68q-1.38-1.68-1.38-5.6t1.34-5.56q1.34-1.65,4.38-1.65a4.86,4.86,0,0,1,4.15,1.78,9,9,0,0,1,1.34,5.4A9.3,9.3,0,0,1,2580.36,1009Z" transform="translate(-2567.11 -974.37)"/><path class="cls-1" d="M2630.57,993.26c-3.61,0-5.78,1.68-6.39,2.82v-2.19a0.27,0.27,0,0,0-.27-0.27h-2.48a0.27,0.27,0,0,0-.27.27v19.37a0.27,0.27,0,0,0,.27.27h2.48a0.27,0.27,0,0,0,.27-0.27v-9.91q0-3.89,1.45-5.58a5.84,5.84,0,0,1,4.58-2,4.51,4.51,0,0,1,3.47,1.2,5.2,5.2,0,0,1,1.11,3.63v12.61a0.27,0.27,0,0,0,.27.27h2.48a0.27,0.27,0,0,0,.27-0.27v-12.72q0-3.81-1.82-5.55A7.56,7.56,0,0,0,2630.57,993.26Z" transform="translate(-2567.11 -974.37)"/><path class="cls-1" d="M2655.63,994.19a10.42,10.42,0,0,0-2-.62,13.61,13.61,0,0,0-2.87-.31,8.66,8.66,0,0,0-6.86,2.72q-2.41,2.72-2.41,7.72t2.37,7.53a8.5,8.5,0,0,0,6.69,2.66,11.06,11.06,0,0,0,4.88-1,0.27,0.27,0,0,0,.15-0.24v-2.11a0.27,0.27,0,0,0-.36-0.25,13.21,13.21,0,0,1-4.74.93,5.15,5.15,0,0,1-4.39-2,9.21,9.21,0,0,1-1.48-5.63q0-7.74,6.07-7.74a9.73,9.73,0,0,1,2.09.26,14.51,14.51,0,0,1,1.93.57,0.26,0.26,0,0,0,.34-0.16l0.75-2.08A0.27,0.27,0,0,0,2655.63,994.19Z" transform="translate(-2567.11 -974.37)"/><path class="cls-1" d="M2615.6,994.34q-1.72-1.58-5.28-1.58a14,14,0,0,0-3.51.45,14.29,14.29,0,0,0-3,1.14,0.27,0.27,0,0,0-.12.34l0.73,1.82a0.27,0.27,0,0,0,.36.14,12.85,12.85,0,0,1,5.37-1.4,4.15,4.15,0,0,1,3.22,1.12,4.46,4.46,0,0,1,.9,2.49l-2.79,0a11.06,11.06,0,0,0-4,.64,9.13,9.13,0,0,0-3.4,2.25,7.59,7.59,0,0,0-2,5.93,6.47,6.47,0,0,0,2.89,4.81,7.39,7.39,0,0,0,4.29,1.37h0a7.07,7.07,0,0,0,2.38-.41,7.73,7.73,0,0,0,2.75-1.69v1.47a0.27,0.27,0,0,0,.27.27H2617a0.27,0.27,0,0,0,.27-0.27V999.54C2617.31,997.22,2616.74,995.4,2615.6,994.34Zm-1.17,10.48c0,2.59-1.3,5.43-3.89,6.35a4.61,4.61,0,0,1-4.16-.61,4.68,4.68,0,0,1-.47-6.94,6.59,6.59,0,0,1,2.43-1.6,8.62,8.62,0,0,1,3.1-.47h3S2614.43,1004.82,2614.43,1004.82Z" transform="translate(-2567.11 -974.37)"/><path class="cls-1" d="M2599.59,993.62a14.69,14.69,0,0,0-2.15-.14c-3.54.13-6,2.41-6,2.64,0-.73,0-1.34,0-2a0.27,0.27,0,0,0-.27-0.27h-2.48a0.27,0.27,0,0,0-.27.27v19.37a0.27,0.27,0,0,0,.27.27h2.48a0.27,0.27,0,0,0,.27-0.27V1003a7.15,7.15,0,0,1,1.72-4.89,5.31,5.31,0,0,1,4.13-2,9.78,9.78,0,0,1,1.9.21,0.27,0.27,0,0,0,.32-0.22l0.34-2.25A0.27,0.27,0,0,0,2599.59,993.62Z" transform="translate(-2567.11 -974.37)"/><path class="cls-1" d="M2674.39,995a7.56,7.56,0,0,0-5.41-1.73c-3.61,0-5.78,1.68-6.39,2.82v-0.21l-0.13-3.66,3.24-2a2.48,2.48,0,1,0-1-1.63l-2.29,1.41-0.16-4.67,3.19-1.95a2.87,2.87,0,1,0-1.07-1.61l-2.2,1.36-0.13-3.73a2.61,2.61,0,1,0-1.88,0l-0.24,7.73-2.39-1.52a3,3,0,1,0-1,1.64l3.33,2.11-0.17,5.65h0l-0.09,3v15.24a0.27,0.27,0,0,0,.27.27h2.5a0.27,0.27,0,0,0,.27-0.27v-9.91q0-3.89,1.45-5.58a5.74,5.74,0,0,1,4.11-1.94h0.46a4.51,4.51,0,0,1,3.46,1.2,5.2,5.2,0,0,1,1.11,3.63v9.85h0v2.77a0.27,0.27,0,0,0,.27.27h2.5a0.27,0.27,0,0,0,.27-0.27v-12.72Q2676.2,996.73,2674.39,995Z" transform="translate(-2567.11 -974.37)"/><circle class="cls-2" cx="93.95" cy="2.61" r="1.58"/><circle class="cls-2" cx="99.92" cy="13.88" r="1.44"/><circle class="cls-2" cx="2667.17" cy="981.11" r="1.69" transform="translate(-2727.41 292.72) rotate(-25.97)"/><circle class="cls-2" cx="87.44" cy="10.56" r="1.83"/></svg>